<?xml version="1.0" encoding="UTF-8" standalone="no"?>
<!DOCTYPE svg PUBLIC "-//W3C//DTD SVG 1.1//EN"
 "http://www.w3.org/Graphics/SVG/1.1/DTD/svg11.dtd">
<!-- Generated by graphviz version 12.2.0 (20241103.1931)
 -->
<!-- Pages: 1 -->
<svg width="206pt" height="188pt"
 viewBox="0.00 0.00 206.00 188.00" xmlns="http://www.w3.org/2000/svg" xmlns:xlink="http://www.w3.org/1999/xlink">
<g id="graph0" class="graph" transform="scale(1 1) rotate(0) translate(4 184)">
<polygon fill="white" stroke="none" points="-4,4 -4,-184 202,-184 202,4 -4,4"/>
<!-- 2781654191872 -->
<g id="node1" class="node">
<title>2781654191872</title>
<ellipse fill="none" stroke="black" cx="58" cy="-162" rx="18" ry="18"/>
<text text-anchor="middle" x="58" y="-156.95" font-family="Times New Roman,serif" font-size="14.00">×</text>
</g>
<!-- 2781654191168 -->
<g id="node2" class="node">
<title>2781654191168</title>
<ellipse fill="none" stroke="black" cx="18" cy="-90" rx="18" ry="18"/>
<text text-anchor="middle" x="18" y="-84.95" font-family="Times New Roman,serif" font-size="14.00">+</text>
</g>
<!-- 2781654191168&#45;&gt;2781654191872 -->
<g id="edge1" class="edge">
<title>2781654191168&#45;&gt;2781654191872</title>
<path fill="none" stroke="black" d="M26.68,-106.19C31.66,-114.9 38.03,-126.06 43.73,-136.03"/>
<polygon fill="black" stroke="black" points="40.59,-137.58 48.59,-144.53 46.66,-134.11 40.59,-137.58"/>
</g>
<!-- 2781616692320 -->
<g id="node3" class="node">
<title>2781616692320</title>
<ellipse fill="none" stroke="black" cx="18" cy="-18" rx="18" ry="18"/>
<text text-anchor="middle" x="18" y="-12.95" font-family="Times New Roman,serif" font-size="14.00">2</text>
</g>
<!-- 2781616692320&#45;&gt;2781654191168 -->
<g id="edge2" class="edge">
<title>2781616692320&#45;&gt;2781654191168</title>
<path fill="none" stroke="black" d="M12.2,-35.24C11.33,-43.01 11.06,-52.54 11.39,-61.4"/>
<polygon fill="black" stroke="black" points="7.89,-61.62 12.1,-71.34 14.87,-61.12 7.89,-61.62"/>
</g>
<!-- 2781616692320&#45;&gt;2781654191168 -->
<g id="edge3" class="edge">
<title>2781616692320&#45;&gt;2781654191168</title>
<path fill="none" stroke="black" d="M23.8,-35.24C24.67,-43.01 24.94,-52.54 24.61,-61.4"/>
<polygon fill="black" stroke="black" points="21.13,-61.12 23.9,-71.34 28.11,-61.62 21.13,-61.12"/>
</g>
<!-- 2781654191744 -->
<g id="node4" class="node">
<title>2781654191744</title>
<ellipse fill="none" stroke="black" cx="72" cy="-90" rx="18" ry="18"/>
<text text-anchor="middle" x="72" y="-84.95" font-family="Times New Roman,serif" font-size="14.00">×</text>
</g>
<!-- 2781654191744&#45;&gt;2781654191872 -->
<g id="edge4" class="edge">
<title>2781654191744&#45;&gt;2781654191872</title>
<path fill="none" stroke="black" d="M68.61,-107.95C67.1,-115.51 65.27,-124.63 63.57,-133.15"/>
<polygon fill="black" stroke="black" points="60.18,-132.23 61.65,-142.73 67.05,-133.61 60.18,-132.23"/>
</g>
<!-- 2781646927440 -->
<g id="node5" class="node">
<title>2781646927440</title>
<ellipse fill="none" stroke="black" cx="72" cy="-18" rx="18" ry="18"/>
<text text-anchor="middle" x="72" y="-12.95" font-family="Times New Roman,serif" font-size="14.00">3</text>
</g>
<!-- 2781646927440&#45;&gt;2781654191744 -->
<g id="edge5" class="edge">
<title>2781646927440&#45;&gt;2781654191744</title>
<path fill="none" stroke="black" d="M66.2,-35.24C65.33,-43.01 65.06,-52.54 65.39,-61.4"/>
<polygon fill="black" stroke="black" points="61.89,-61.62 66.1,-71.34 68.87,-61.12 61.89,-61.62"/>
</g>
<!-- 2781646927440&#45;&gt;2781654191744 -->
<g id="edge6" class="edge">
<title>2781646927440&#45;&gt;2781654191744</title>
<path fill="none" stroke="black" d="M77.8,-35.24C78.67,-43.01 78.94,-52.54 78.61,-61.4"/>
<polygon fill="black" stroke="black" points="75.13,-61.12 77.9,-71.34 82.11,-61.62 75.13,-61.12"/>
</g>
<!-- 2781654192704 -->
<g id="node7" class="node">
<title>2781654192704</title>
<ellipse fill="none" stroke="black" cx="126" cy="-90" rx="18" ry="18"/>
<text text-anchor="middle" x="126" y="-84.95" font-family="Times New Roman,serif" font-size="14.00">×</text>
</g>
<!-- 2781646927440&#45;&gt;2781654192704 -->
<g id="edge8" class="edge">
<title>2781646927440&#45;&gt;2781654192704</title>
<path fill="none" stroke="black" d="M82.67,-32.83C89.99,-42.32 99.88,-55.14 108.36,-66.14"/>
<polygon fill="black" stroke="black" points="105.55,-68.22 114.43,-74 111.09,-63.94 105.55,-68.22"/>
</g>
<!-- 2781654193600 -->
<g id="node6" class="node">
<title>2781654193600</title>
<ellipse fill="none" stroke="black" cx="139" cy="-162" rx="18" ry="18"/>
<text text-anchor="middle" x="139" y="-156.95" font-family="Times New Roman,serif" font-size="14.00">+</text>
</g>
<!-- 2781654192704&#45;&gt;2781654193600 -->
<g id="edge7" class="edge">
<title>2781654192704&#45;&gt;2781654193600</title>
<path fill="none" stroke="black" d="M129.15,-107.95C130.55,-115.51 132.25,-124.63 133.83,-133.15"/>
<polygon fill="black" stroke="black" points="130.34,-133.53 135.61,-142.72 137.22,-132.25 130.34,-133.53"/>
</g>
<!-- 2781441238384 -->
<g id="node8" class="node">
<title>2781441238384</title>
<ellipse fill="none" stroke="black" cx="126" cy="-18" rx="18" ry="18"/>
<text text-anchor="middle" x="126" y="-12.95" font-family="Times New Roman,serif" font-size="14.00">4</text>
</g>
<!-- 2781441238384&#45;&gt;2781654192704 -->
<g id="edge9" class="edge">
<title>2781441238384&#45;&gt;2781654192704</title>
<path fill="none" stroke="black" d="M126,-36.3C126,-43.59 126,-52.27 126,-60.46"/>
<polygon fill="black" stroke="black" points="122.5,-60.38 126,-70.38 129.5,-60.38 122.5,-60.38"/>
</g>
<!-- 2781654193408 -->
<g id="node9" class="node">
<title>2781654193408</title>
<ellipse fill="none" stroke="black" cx="180" cy="-90" rx="18" ry="18"/>
<text text-anchor="middle" x="180" y="-84.95" font-family="Times New Roman,serif" font-size="14.00">+</text>
</g>
<!-- 2781654193408&#45;&gt;2781654193600 -->
<g id="edge10" class="edge">
<title>2781654193408&#45;&gt;2781654193600</title>
<path fill="none" stroke="black" d="M171.1,-106.19C166,-114.9 159.46,-126.06 153.62,-136.03"/>
<polygon fill="black" stroke="black" points="150.68,-134.14 148.64,-144.53 156.72,-137.67 150.68,-134.14"/>
</g>
<!-- 2781653983984 -->
<g id="node10" class="node">
<title>2781653983984</title>
<ellipse fill="none" stroke="black" cx="180" cy="-18" rx="18" ry="18"/>
<text text-anchor="middle" x="180" y="-12.95" font-family="Times New Roman,serif" font-size="14.00">5</text>
</g>
<!-- 2781653983984&#45;&gt;2781654193408 -->
<g id="edge11" class="edge">
<title>2781653983984&#45;&gt;2781654193408</title>
<path fill="none" stroke="black" d="M174.2,-35.24C173.33,-43.01 173.06,-52.54 173.39,-61.4"/>
<polygon fill="black" stroke="black" points="169.89,-61.62 174.1,-71.34 176.87,-61.12 169.89,-61.62"/>
</g>
<!-- 2781653983984&#45;&gt;2781654193408 -->
<g id="edge12" class="edge">
<title>2781653983984&#45;&gt;2781654193408</title>
<path fill="none" stroke="black" d="M185.8,-35.24C186.67,-43.01 186.94,-52.54 186.61,-61.4"/>
<polygon fill="black" stroke="black" points="183.13,-61.12 185.9,-71.34 190.11,-61.62 183.13,-61.12"/>
</g>
</g>
</svg>
