<?xml version="1.0" encoding="UTF-8" standalone="no"?>
<!DOCTYPE svg PUBLIC "-//W3C//DTD SVG 1.1//EN"
 "http://www.w3.org/Graphics/SVG/1.1/DTD/svg11.dtd">
<!-- Generated by graphviz version 12.2.0 (20241103.1931)
 -->
<!-- Pages: 1 -->
<svg width="98pt" height="188pt"
 viewBox="0.00 0.00 98.00 188.00" xmlns="http://www.w3.org/2000/svg" xmlns:xlink="http://www.w3.org/1999/xlink">
<g id="graph0" class="graph" transform="scale(1 1) rotate(0) translate(4 184)">
<polygon fill="white" stroke="none" points="-4,4 -4,-184 94,-184 94,4 -4,4"/>
<!-- 2781645232192 -->
<g id="node1" class="node">
<title>2781645232192</title>
<ellipse fill="none" stroke="black" cx="45" cy="-162" rx="18" ry="18"/>
<text text-anchor="middle" x="45" y="-156.95" font-family="Times New Roman,serif" font-size="14.00">×</text>
</g>
<!-- 2781670805312 -->
<g id="node2" class="node">
<title>2781670805312</title>
<ellipse fill="none" stroke="black" cx="18" cy="-90" rx="18" ry="18"/>
<text text-anchor="middle" x="18" y="-84.95" font-family="Times New Roman,serif" font-size="14.00">+</text>
</g>
<!-- 2781670805312&#45;&gt;2781645232192 -->
<g id="edge1" class="edge">
<title>2781670805312&#45;&gt;2781645232192</title>
<path fill="none" stroke="black" d="M24.26,-107.24C27.36,-115.28 31.19,-125.19 34.7,-134.31"/>
<polygon fill="black" stroke="black" points="31.36,-135.37 38.23,-143.44 37.89,-132.85 31.36,-135.37"/>
</g>
<!-- 2781616692320 -->
<g id="node3" class="node">
<title>2781616692320</title>
<ellipse fill="none" stroke="black" cx="18" cy="-18" rx="18" ry="18"/>
<text text-anchor="middle" x="18" y="-12.95" font-family="Times New Roman,serif" font-size="14.00">2</text>
</g>
<!-- 2781616692320&#45;&gt;2781670805312 -->
<g id="edge2" class="edge">
<title>2781616692320&#45;&gt;2781670805312</title>
<path fill="none" stroke="black" d="M12.2,-35.24C11.33,-43.01 11.06,-52.54 11.39,-61.4"/>
<polygon fill="black" stroke="black" points="7.89,-61.62 12.1,-71.34 14.87,-61.12 7.89,-61.62"/>
</g>
<!-- 2781616692320&#45;&gt;2781670805312 -->
<g id="edge3" class="edge">
<title>2781616692320&#45;&gt;2781670805312</title>
<path fill="none" stroke="black" d="M23.8,-35.24C24.67,-43.01 24.94,-52.54 24.61,-61.4"/>
<polygon fill="black" stroke="black" points="21.13,-61.12 23.9,-71.34 28.11,-61.62 21.13,-61.12"/>
</g>
<!-- 2781670806912 -->
<g id="node4" class="node">
<title>2781670806912</title>
<ellipse fill="none" stroke="black" cx="72" cy="-90" rx="18" ry="18"/>
<text text-anchor="middle" x="72" y="-84.95" font-family="Times New Roman,serif" font-size="14.00">×</text>
</g>
<!-- 2781670806912&#45;&gt;2781645232192 -->
<g id="edge4" class="edge">
<title>2781670806912&#45;&gt;2781645232192</title>
<path fill="none" stroke="black" d="M65.74,-107.24C62.64,-115.28 58.81,-125.19 55.3,-134.31"/>
<polygon fill="black" stroke="black" points="52.11,-132.85 51.77,-143.44 58.64,-135.37 52.11,-132.85"/>
</g>
<!-- 2781646927440 -->
<g id="node5" class="node">
<title>2781646927440</title>
<ellipse fill="none" stroke="black" cx="72" cy="-18" rx="18" ry="18"/>
<text text-anchor="middle" x="72" y="-12.95" font-family="Times New Roman,serif" font-size="14.00">3</text>
</g>
<!-- 2781646927440&#45;&gt;2781670806912 -->
<g id="edge5" class="edge">
<title>2781646927440&#45;&gt;2781670806912</title>
<path fill="none" stroke="black" d="M66.2,-35.24C65.33,-43.01 65.06,-52.54 65.39,-61.4"/>
<polygon fill="black" stroke="black" points="61.89,-61.62 66.1,-71.34 68.87,-61.12 61.89,-61.62"/>
</g>
<!-- 2781646927440&#45;&gt;2781670806912 -->
<g id="edge6" class="edge">
<title>2781646927440&#45;&gt;2781670806912</title>
<path fill="none" stroke="black" d="M77.8,-35.24C78.67,-43.01 78.94,-52.54 78.61,-61.4"/>
<polygon fill="black" stroke="black" points="75.13,-61.12 77.9,-71.34 82.11,-61.62 75.13,-61.12"/>
</g>
</g>
</svg>
