<?xml version="1.0" encoding="UTF-8" standalone="no"?>
<!DOCTYPE svg PUBLIC "-//W3C//DTD SVG 1.1//EN"
 "http://www.w3.org/Graphics/SVG/1.1/DTD/svg11.dtd">
<!-- Generated by graphviz version 12.2.0 (20241103.1931)
 -->
<!-- Pages: 1 -->
<svg width="260pt" height="67pt"
 viewBox="0.00 0.00 260.00 67.00" xmlns="http://www.w3.org/2000/svg" xmlns:xlink="http://www.w3.org/1999/xlink">
<g id="graph0" class="graph" transform="scale(1 1) rotate(0) translate(4 63)">
<polygon fill="white" stroke="none" points="-4,4 -4,-63 256,-63 256,4 -4,4"/>
<!-- 2 -->
<g id="node1" class="node">
<title>2</title>
<ellipse fill="none" stroke="black" cx="18" cy="-18" rx="18" ry="18"/>
<text text-anchor="middle" x="18" y="-12.95" font-family="Times New Roman,serif" font-size="14.00">2</text>
</g>
<!-- + -->
<g id="node2" class="node">
<title>+</title>
<ellipse fill="none" stroke="black" cx="90" cy="-41" rx="18" ry="18"/>
<text text-anchor="middle" x="90" y="-35.95" font-family="Times New Roman,serif" font-size="14.00">+</text>
</g>
<!-- 2&#45;&gt;+ -->
<g id="edge1" class="edge">
<title>2&#45;&gt;+</title>
<path fill="none" stroke="black" d="M35.59,-23.45C43.43,-26.03 53.01,-29.17 61.87,-32.09"/>
<polygon fill="black" stroke="black" points="60.5,-35.32 71.09,-35.12 62.68,-28.67 60.5,-35.32"/>
</g>
<!-- 3 -->
<g id="node3" class="node">
<title>3</title>
<ellipse fill="none" stroke="black" cx="162" cy="-41" rx="18" ry="18"/>
<text text-anchor="middle" x="162" y="-35.95" font-family="Times New Roman,serif" font-size="14.00">3</text>
</g>
<!-- +&#45;&gt;3 -->
<g id="edge2" class="edge">
<title>+&#45;&gt;3</title>
<path fill="none" stroke="black" d="M108.3,-41C115.59,-41 124.27,-41 132.46,-41"/>
<polygon fill="black" stroke="black" points="132.38,-44.5 142.38,-41 132.38,-37.5 132.38,-44.5"/>
</g>
<!-- × -->
<g id="node4" class="node">
<title>×</title>
<ellipse fill="none" stroke="black" cx="234" cy="-18" rx="18" ry="18"/>
<text text-anchor="middle" x="234" y="-12.95" font-family="Times New Roman,serif" font-size="14.00">×</text>
</g>
<!-- 3&#45;&gt;× -->
<g id="edge3" class="edge">
<title>3&#45;&gt;×</title>
<path fill="none" stroke="black" d="M179.59,-35.55C187.43,-32.97 197.01,-29.83 205.87,-26.91"/>
<polygon fill="black" stroke="black" points="206.68,-30.33 215.09,-23.88 204.5,-23.68 206.68,-30.33"/>
</g>
<!-- ×&#45;&gt;2 -->
<g id="edge4" class="edge">
<title>×&#45;&gt;2</title>
<path fill="none" stroke="black" d="M215.83,-16.38C205.47,-15.48 191.99,-14.45 180,-14 132.03,-12.19 119.97,-12.19 72,-14 64.04,-14.3 55.42,-14.85 47.49,-15.45"/>
<polygon fill="black" stroke="black" points="47.36,-11.95 37.68,-16.25 47.93,-18.93 47.36,-11.95"/>
</g>
</g>
</svg>
