<?xml version="1.0" encoding="UTF-8" standalone="no"?>
<!DOCTYPE svg PUBLIC "-//W3C//DTD SVG 1.1//EN"
 "http://www.w3.org/Graphics/SVG/1.1/DTD/svg11.dtd">
<!-- Generated by graphviz version 12.2.0 (20241103.1931)
 -->
<!-- Pages: 1 -->
<svg width="366pt" height="211pt"
 viewBox="0.00 0.00 366.37 211.17" xmlns="http://www.w3.org/2000/svg" xmlns:xlink="http://www.w3.org/1999/xlink">
<g id="graph0" class="graph" transform="scale(1 1) rotate(0) translate(4 207.17)">
<polygon fill="white" stroke="none" points="-4,4 -4,-207.17 362.37,-207.17 362.37,4 -4,4"/>
<!-- 2315339873152 -->
<g id="node1" class="node">
<title>2315339873152</title>
<ellipse fill="none" stroke="black" cx="140.45" cy="-181.6" rx="21.57" ry="21.57"/>
<text text-anchor="start" x="137.45" y="-183.35" font-family="Times New Roman,serif" font-size="10.00">+</text>
<text text-anchor="start" x="137.83" y="-172.1" font-family="Times New Roman,serif" font-size="10.00" fill="blue">0</text>
</g>
<!-- 2315426422528 -->
<g id="node2" class="node">
<title>2315426422528</title>
<ellipse fill="none" stroke="black" cx="232.45" cy="-181.6" rx="21.57" ry="21.57"/>
<text text-anchor="start" x="229.45" y="-183.35" font-family="Times New Roman,serif" font-size="10.00">+</text>
<text text-anchor="start" x="229.83" y="-172.1" font-family="Times New Roman,serif" font-size="10.00" fill="blue">1</text>
</g>
<!-- 2315426415488 -->
<g id="node3" class="node">
<title>2315426415488</title>
<ellipse fill="none" stroke="black" cx="85.45" cy="-102.47" rx="21.57" ry="21.57"/>
<text text-anchor="start" x="82.45" y="-104.22" font-family="Times New Roman,serif" font-size="10.00">×</text>
<text text-anchor="start" x="80.2" y="-92.97" font-family="Times New Roman,serif" font-size="10.00" fill="blue">00</text>
</g>
<!-- 2315426415488&#45;&gt;2315339873152 -->
<g id="edge10" class="edge">
<title>2315426415488&#45;&gt;2315339873152</title>
<path fill="none" stroke="black" d="M97.66,-120.59C104.71,-130.47 113.72,-143.12 121.66,-154.25"/>
<polygon fill="black" stroke="black" points="118.74,-156.19 127.4,-162.3 124.44,-152.12 118.74,-156.19"/>
</g>
<!-- 2315426418816 -->
<g id="node4" class="node">
<title>2315426418816</title>
<ellipse fill="none" stroke="black" cx="148.45" cy="-102.47" rx="21.57" ry="21.57"/>
<text text-anchor="start" x="145.45" y="-104.22" font-family="Times New Roman,serif" font-size="10.00">×</text>
<text text-anchor="start" x="143.2" y="-92.97" font-family="Times New Roman,serif" font-size="10.00" fill="blue">01</text>
</g>
<!-- 2315426418816&#45;&gt;2315339873152 -->
<g id="edge7" class="edge">
<title>2315426418816&#45;&gt;2315339873152</title>
<path fill="none" stroke="black" d="M146.31,-124.14C145.53,-131.66 144.63,-140.35 143.77,-148.62"/>
<polygon fill="black" stroke="black" points="140.31,-148.06 142.76,-158.37 147.27,-148.78 140.31,-148.06"/>
</g>
<!-- 2315426424768 -->
<g id="node5" class="node">
<title>2315426424768</title>
<ellipse fill="none" stroke="black" cx="224.45" cy="-102.47" rx="21.57" ry="21.57"/>
<text text-anchor="start" x="221.45" y="-104.22" font-family="Times New Roman,serif" font-size="10.00">×</text>
<text text-anchor="start" x="219.2" y="-92.97" font-family="Times New Roman,serif" font-size="10.00" fill="blue">10</text>
</g>
<!-- 2315426424768&#45;&gt;2315426422528 -->
<g id="edge4" class="edge">
<title>2315426424768&#45;&gt;2315426422528</title>
<path fill="none" stroke="black" d="M226.59,-124.14C227.37,-131.66 228.28,-140.35 229.13,-148.62"/>
<polygon fill="black" stroke="black" points="225.63,-148.78 230.14,-158.37 232.59,-148.06 225.63,-148.78"/>
</g>
<!-- 2315426425024 -->
<g id="node6" class="node">
<title>2315426425024</title>
<ellipse fill="none" stroke="black" cx="285.45" cy="-102.47" rx="21.57" ry="21.57"/>
<text text-anchor="start" x="282.45" y="-104.22" font-family="Times New Roman,serif" font-size="10.00">×</text>
<text text-anchor="start" x="280.58" y="-92.97" font-family="Times New Roman,serif" font-size="10.00" fill="blue">11</text>
</g>
<!-- 2315426425024&#45;&gt;2315426422528 -->
<g id="edge1" class="edge">
<title>2315426425024&#45;&gt;2315426422528</title>
<path fill="none" stroke="black" d="M273.69,-120.59C266.94,-130.4 258.33,-142.94 250.72,-154.01"/>
<polygon fill="black" stroke="black" points="248,-151.79 245.22,-162.02 253.77,-155.76 248,-151.79"/>
</g>
<!-- 2315361287712 -->
<g id="node7" class="node">
<title>2315361287712</title>
<ellipse fill="none" stroke="black" cx="274.45" cy="-22.45" rx="22.45" ry="22.45"/>
<text text-anchor="start" x="271.83" y="-24.2" font-family="Times New Roman,serif" font-size="10.00">2</text>
<text text-anchor="start" x="266.58" y="-12.95" font-family="Times New Roman,serif" font-size="10.00" fill="blue">000</text>
</g>
<!-- 2315361287712&#45;&gt;2315426424768 -->
<g id="edge5" class="edge">
<title>2315361287712&#45;&gt;2315426424768</title>
<path fill="none" stroke="black" d="M262.6,-41.94C256.47,-51.5 248.87,-63.36 242.07,-73.97"/>
<polygon fill="black" stroke="black" points="239.14,-72.07 236.69,-82.37 245.03,-75.84 239.14,-72.07"/>
</g>
<!-- 2315361910144 -->
<g id="node8" class="node">
<title>2315361910144</title>
<ellipse fill="none" stroke="black" cx="85.45" cy="-22.45" rx="22.45" ry="22.45"/>
<text text-anchor="start" x="82.83" y="-24.2" font-family="Times New Roman,serif" font-size="10.00">6</text>
<text text-anchor="start" x="77.58" y="-12.95" font-family="Times New Roman,serif" font-size="10.00" fill="blue">001</text>
</g>
<!-- 2315361910144&#45;&gt;2315426415488 -->
<g id="edge12" class="edge">
<title>2315361910144&#45;&gt;2315426415488</title>
<path fill="none" stroke="black" d="M85.45,-45.18C85.45,-52.63 85.45,-61.14 85.45,-69.24"/>
<polygon fill="black" stroke="black" points="81.95,-69.14 85.45,-79.14 88.95,-69.14 81.95,-69.14"/>
</g>
<!-- 2315361910144&#45;&gt;2315426424768 -->
<g id="edge6" class="edge">
<title>2315361910144&#45;&gt;2315426424768</title>
<path fill="none" stroke="black" d="M103.52,-36.04C108.01,-39.03 112.86,-42.16 117.45,-44.9 143.07,-60.2 173.19,-75.93 194.94,-86.91"/>
<polygon fill="black" stroke="black" points="193.32,-90.01 203.83,-91.36 196.45,-83.76 193.32,-90.01"/>
</g>
<!-- 2315380453792 -->
<g id="node9" class="node">
<title>2315380453792</title>
<ellipse fill="none" stroke="black" cx="211.45" cy="-22.45" rx="22.45" ry="22.45"/>
<text text-anchor="start" x="208.83" y="-24.2" font-family="Times New Roman,serif" font-size="10.00">5</text>
<text text-anchor="start" x="203.58" y="-12.95" font-family="Times New Roman,serif" font-size="10.00" fill="blue">010</text>
</g>
<!-- 2315380453792&#45;&gt;2315426418816 -->
<g id="edge9" class="edge">
<title>2315380453792&#45;&gt;2315426418816</title>
<path fill="none" stroke="black" d="M197.78,-40.38C189.33,-50.85 178.32,-64.48 168.85,-76.21"/>
<polygon fill="black" stroke="black" points="166.17,-73.95 162.61,-83.93 171.62,-78.35 166.17,-73.95"/>
</g>
<!-- 2315380453792&#45;&gt;2315426425024 -->
<g id="edge3" class="edge">
<title>2315380453792&#45;&gt;2315426425024</title>
<path fill="none" stroke="black" d="M226.43,-39.24C236.99,-50.38 251.33,-65.5 263.23,-78.04"/>
<polygon fill="black" stroke="black" points="260.54,-80.29 269.96,-85.14 265.62,-75.47 260.54,-80.29"/>
</g>
<!-- 2315387109136 -->
<g id="node10" class="node">
<title>2315387109136</title>
<ellipse fill="none" stroke="black" cx="336.45" cy="-22.45" rx="21.92" ry="21.92"/>
<text text-anchor="start" x="333.83" y="-24.2" font-family="Times New Roman,serif" font-size="10.00">1</text>
<text text-anchor="start" x="328.95" y="-12.95" font-family="Times New Roman,serif" font-size="10.00" fill="blue">011</text>
</g>
<!-- 2315387109136&#45;&gt;2315426425024 -->
<g id="edge2" class="edge">
<title>2315387109136&#45;&gt;2315426425024</title>
<path fill="none" stroke="black" d="M324.88,-41.15C318.49,-50.93 310.41,-63.28 303.24,-74.26"/>
<polygon fill="black" stroke="black" points="300.35,-72.28 297.81,-82.57 306.21,-76.11 300.35,-72.28"/>
</g>
<!-- 2315387566528 -->
<g id="node11" class="node">
<title>2315387566528</title>
<ellipse fill="none" stroke="black" cx="148.45" cy="-22.45" rx="22.45" ry="22.45"/>
<text text-anchor="start" x="145.83" y="-24.2" font-family="Times New Roman,serif" font-size="10.00">3</text>
<text text-anchor="start" x="140.58" y="-12.95" font-family="Times New Roman,serif" font-size="10.00" fill="blue">100</text>
</g>
<!-- 2315387566528&#45;&gt;2315426418816 -->
<g id="edge8" class="edge">
<title>2315387566528&#45;&gt;2315426418816</title>
<path fill="none" stroke="black" d="M148.45,-45.18C148.45,-52.63 148.45,-61.14 148.45,-69.24"/>
<polygon fill="black" stroke="black" points="144.95,-69.14 148.45,-79.14 151.95,-69.14 144.95,-69.14"/>
</g>
<!-- 2315387566688 -->
<g id="node12" class="node">
<title>2315387566688</title>
<ellipse fill="none" stroke="black" cx="22.45" cy="-22.45" rx="22.45" ry="22.45"/>
<text text-anchor="start" x="19.83" y="-24.2" font-family="Times New Roman,serif" font-size="10.00">4</text>
<text text-anchor="start" x="14.58" y="-12.95" font-family="Times New Roman,serif" font-size="10.00" fill="blue">101</text>
</g>
<!-- 2315387566688&#45;&gt;2315426415488 -->
<g id="edge11" class="edge">
<title>2315387566688&#45;&gt;2315426415488</title>
<path fill="none" stroke="black" d="M36.12,-40.38C44.57,-50.85 55.58,-64.48 65.05,-76.21"/>
<polygon fill="black" stroke="black" points="62.28,-78.35 71.29,-83.93 67.73,-73.95 62.28,-78.35"/>
</g>
</g>
</svg>
