<?xml version="1.0" encoding="UTF-8" standalone="no"?>
<!DOCTYPE svg PUBLIC "-//W3C//DTD SVG 1.1//EN"
 "http://www.w3.org/Graphics/SVG/1.1/DTD/svg11.dtd">
<!-- Generated by graphviz version 12.2.0 (20241103.1931)
 -->
<!-- Pages: 1 -->
<svg width="125pt" height="188pt"
 viewBox="0.00 0.00 125.00 188.00" xmlns="http://www.w3.org/2000/svg" xmlns:xlink="http://www.w3.org/1999/xlink">
<g id="graph0" class="graph" transform="scale(1 1) rotate(0) translate(4 184)">
<polygon fill="white" stroke="none" points="-4,4 -4,-184 121,-184 121,4 -4,4"/>
<!-- 2781670644736 -->
<g id="node1" class="node">
<title>2781670644736</title>
<ellipse fill="none" stroke="black" cx="72" cy="-162" rx="18" ry="18"/>
<text text-anchor="middle" x="72" y="-156.95" font-family="Times New Roman,serif" font-size="14.00">+</text>
</g>
<!-- 2781670648448 -->
<g id="node2" class="node">
<title>2781670648448</title>
<ellipse fill="none" stroke="black" cx="45" cy="-90" rx="18" ry="18"/>
<text text-anchor="middle" x="45" y="-84.95" font-family="Times New Roman,serif" font-size="14.00">×</text>
</g>
<!-- 2781670648448&#45;&gt;2781670644736 -->
<g id="edge1" class="edge">
<title>2781670648448&#45;&gt;2781670644736</title>
<path fill="none" stroke="black" d="M51.26,-107.24C54.36,-115.28 58.19,-125.19 61.7,-134.31"/>
<polygon fill="black" stroke="black" points="58.36,-135.37 65.23,-143.44 64.89,-132.85 58.36,-135.37"/>
</g>
<!-- 2781653983984 -->
<g id="node3" class="node">
<title>2781653983984</title>
<ellipse fill="none" stroke="black" cx="18" cy="-18" rx="18" ry="18"/>
<text text-anchor="middle" x="18" y="-12.95" font-family="Times New Roman,serif" font-size="14.00">5</text>
</g>
<!-- 2781653983984&#45;&gt;2781670648448 -->
<g id="edge2" class="edge">
<title>2781653983984&#45;&gt;2781670648448</title>
<path fill="none" stroke="black" d="M24.26,-35.24C27.36,-43.28 31.19,-53.19 34.7,-62.31"/>
<polygon fill="black" stroke="black" points="31.36,-63.37 38.23,-71.44 37.89,-60.85 31.36,-63.37"/>
</g>
<!-- 2781441238384 -->
<g id="node4" class="node">
<title>2781441238384</title>
<ellipse fill="none" stroke="black" cx="72" cy="-18" rx="18" ry="18"/>
<text text-anchor="middle" x="72" y="-12.95" font-family="Times New Roman,serif" font-size="14.00">4</text>
</g>
<!-- 2781441238384&#45;&gt;2781670648448 -->
<g id="edge3" class="edge">
<title>2781441238384&#45;&gt;2781670648448</title>
<path fill="none" stroke="black" d="M65.74,-35.24C62.64,-43.28 58.81,-53.19 55.3,-62.31"/>
<polygon fill="black" stroke="black" points="52.11,-60.85 51.77,-71.44 58.64,-63.37 52.11,-60.85"/>
</g>
<!-- 2781646927440 -->
<g id="node5" class="node">
<title>2781646927440</title>
<ellipse fill="none" stroke="black" cx="99" cy="-90" rx="18" ry="18"/>
<text text-anchor="middle" x="99" y="-84.95" font-family="Times New Roman,serif" font-size="14.00">3</text>
</g>
<!-- 2781646927440&#45;&gt;2781670644736 -->
<g id="edge4" class="edge">
<title>2781646927440&#45;&gt;2781670644736</title>
<path fill="none" stroke="black" d="M92.74,-107.24C89.64,-115.28 85.81,-125.19 82.3,-134.31"/>
<polygon fill="black" stroke="black" points="79.11,-132.85 78.77,-143.44 85.64,-135.37 79.11,-132.85"/>
</g>
</g>
</svg>
