<?xml version="1.0" encoding="UTF-8" standalone="no"?>
<!DOCTYPE svg PUBLIC "-//W3C//DTD SVG 1.1//EN"
 "http://www.w3.org/Graphics/SVG/1.1/DTD/svg11.dtd">
<!-- Generated by graphviz version 12.2.0 (20241103.1931)
 -->
<!-- Pages: 1 -->
<svg width="112pt" height="209pt"
 viewBox="0.00 0.00 112.13 209.40" xmlns="http://www.w3.org/2000/svg" xmlns:xlink="http://www.w3.org/1999/xlink">
<g id="graph0" class="graph" transform="scale(1 1) rotate(0) translate(4 205.4)">
<polygon fill="white" stroke="none" points="-4,4 -4,-205.4 108.13,-205.4 108.13,4 -4,4"/>
<!-- 2781645232192 -->
<g id="node1" class="node">
<title>2781645232192</title>
<ellipse fill="none" stroke="black" cx="51.57" cy="-179.83" rx="21.57" ry="21.57"/>
<text text-anchor="start" x="48.57" y="-181.58" font-family="Times New Roman,serif" font-size="10.00">×</text>
<text text-anchor="start" x="48.94" y="-170.33" font-family="Times New Roman,serif" font-size="10.00" fill="blue">_</text>
</g>
<!-- 2781670805312 -->
<g id="node2" class="node">
<title>2781670805312</title>
<ellipse fill="none" stroke="black" cx="21.57" cy="-100.7" rx="21.57" ry="21.57"/>
<text text-anchor="start" x="18.57" y="-102.45" font-family="Times New Roman,serif" font-size="10.00">+</text>
<text text-anchor="start" x="18.94" y="-91.2" font-family="Times New Roman,serif" font-size="10.00" fill="blue">0</text>
</g>
<!-- 2781670805312&#45;&gt;2781645232192 -->
<g id="edge1" class="edge">
<title>2781670805312&#45;&gt;2781645232192</title>
<path fill="none" stroke="black" d="M29.14,-121.16C32.41,-129.57 36.3,-139.59 39.93,-148.91"/>
<polygon fill="black" stroke="black" points="36.56,-149.91 43.45,-157.97 43.09,-147.38 36.56,-149.91"/>
</g>
<!-- 2781670806912 -->
<g id="node3" class="node">
<title>2781670806912</title>
<ellipse fill="none" stroke="black" cx="82.57" cy="-100.7" rx="21.57" ry="21.57"/>
<text text-anchor="start" x="79.57" y="-102.45" font-family="Times New Roman,serif" font-size="10.00">×</text>
<text text-anchor="start" x="79.94" y="-91.2" font-family="Times New Roman,serif" font-size="10.00" fill="blue">1</text>
</g>
<!-- 2781670806912&#45;&gt;2781645232192 -->
<g id="edge4" class="edge">
<title>2781670806912&#45;&gt;2781645232192</title>
<path fill="none" stroke="black" d="M74.74,-121.16C71.37,-129.57 67.34,-139.59 63.59,-148.91"/>
<polygon fill="black" stroke="black" points="60.43,-147.39 59.95,-157.97 66.93,-150 60.43,-147.39"/>
</g>
<!-- 2781616692320 -->
<g id="node4" class="node">
<title>2781616692320</title>
<ellipse fill="none" stroke="black" cx="21.57" cy="-21.57" rx="21.57" ry="21.57"/>
<text text-anchor="start" x="18.94" y="-23.32" font-family="Times New Roman,serif" font-size="10.00">2</text>
<text text-anchor="start" x="18.94" y="-12.07" font-family="Times New Roman,serif" font-size="10.00" fill="blue">0</text>
</g>
<!-- 2781616692320&#45;&gt;2781670805312 -->
<g id="edge2" class="edge">
<title>2781616692320&#45;&gt;2781670805312</title>
<path fill="none" stroke="black" d="M15.58,-42.43C14.88,-50.29 14.66,-59.51 14.92,-68.23"/>
<polygon fill="black" stroke="black" points="11.42,-68.34 15.48,-78.12 18.41,-67.94 11.42,-68.34"/>
</g>
<!-- 2781616692320&#45;&gt;2781670805312 -->
<g id="edge3" class="edge">
<title>2781616692320&#45;&gt;2781670805312</title>
<path fill="none" stroke="black" d="M27.55,-42.43C28.25,-50.29 28.47,-59.51 28.21,-68.23"/>
<polygon fill="black" stroke="black" points="24.72,-67.94 27.66,-78.12 31.71,-68.34 24.72,-67.94"/>
</g>
<!-- 2781646927440 -->
<g id="node5" class="node">
<title>2781646927440</title>
<ellipse fill="none" stroke="black" cx="82.57" cy="-21.57" rx="21.57" ry="21.57"/>
<text text-anchor="start" x="79.94" y="-23.32" font-family="Times New Roman,serif" font-size="10.00">3</text>
<text text-anchor="start" x="79.94" y="-12.07" font-family="Times New Roman,serif" font-size="10.00" fill="blue">1</text>
</g>
<!-- 2781646927440&#45;&gt;2781670806912 -->
<g id="edge5" class="edge">
<title>2781646927440&#45;&gt;2781670806912</title>
<path fill="none" stroke="black" d="M76.58,-42.43C75.88,-50.29 75.66,-59.51 75.92,-68.23"/>
<polygon fill="black" stroke="black" points="72.42,-68.34 76.48,-78.12 79.41,-67.94 72.42,-68.34"/>
</g>
<!-- 2781646927440&#45;&gt;2781670806912 -->
<g id="edge6" class="edge">
<title>2781646927440&#45;&gt;2781670806912</title>
<path fill="none" stroke="black" d="M88.55,-42.43C89.25,-50.29 89.47,-59.51 89.21,-68.23"/>
<polygon fill="black" stroke="black" points="85.72,-67.94 88.66,-78.12 92.71,-68.34 85.72,-67.94"/>
</g>
</g>
</svg>
