<?xml version="1.0" encoding="UTF-8" standalone="no"?>
<!DOCTYPE svg PUBLIC "-//W3C//DTD SVG 1.1//EN"
 "http://www.w3.org/Graphics/SVG/1.1/DTD/svg11.dtd">
<!-- Generated by graphviz version 12.2.0 (20241103.1931)
 -->
<!-- Pages: 1 -->
<svg width="234pt" height="209pt"
 viewBox="0.00 0.00 234.13 209.40" xmlns="http://www.w3.org/2000/svg" xmlns:xlink="http://www.w3.org/1999/xlink">
<g id="graph0" class="graph" transform="scale(1 1) rotate(0) translate(4 205.4)">
<polygon fill="white" stroke="none" points="-4,4 -4,-205.4 230.13,-205.4 230.13,4 -4,4"/>
<!-- 2781670912384 -->
<g id="node1" class="node">
<title>2781670912384</title>
<ellipse fill="none" stroke="black" cx="112.57" cy="-179.83" rx="21.57" ry="21.57"/>
<text text-anchor="start" x="109.57" y="-181.58" font-family="Times New Roman,serif" font-size="10.00">+</text>
<text text-anchor="start" x="109.94" y="-170.33" font-family="Times New Roman,serif" font-size="10.00" fill="blue">_</text>
</g>
<!-- 2781670648448 -->
<g id="node2" class="node">
<title>2781670648448</title>
<ellipse fill="none" stroke="black" cx="82.57" cy="-100.7" rx="21.57" ry="21.57"/>
<text text-anchor="start" x="79.57" y="-102.45" font-family="Times New Roman,serif" font-size="10.00">×</text>
<text text-anchor="start" x="79.94" y="-91.2" font-family="Times New Roman,serif" font-size="10.00" fill="blue">0</text>
</g>
<!-- 2781670648448&#45;&gt;2781670912384 -->
<g id="edge1" class="edge">
<title>2781670648448&#45;&gt;2781670912384</title>
<path fill="none" stroke="black" d="M90.14,-121.16C93.41,-129.57 97.3,-139.59 100.93,-148.91"/>
<polygon fill="black" stroke="black" points="97.56,-149.91 104.45,-157.97 104.09,-147.38 97.56,-149.91"/>
</g>
<!-- 2781670907648 -->
<g id="node3" class="node">
<title>2781670907648</title>
<ellipse fill="none" stroke="black" cx="143.57" cy="-100.7" rx="21.57" ry="21.57"/>
<text text-anchor="start" x="140.57" y="-102.45" font-family="Times New Roman,serif" font-size="10.00">+</text>
<text text-anchor="start" x="140.94" y="-91.2" font-family="Times New Roman,serif" font-size="10.00" fill="blue">1</text>
</g>
<!-- 2781670907648&#45;&gt;2781670912384 -->
<g id="edge4" class="edge">
<title>2781670907648&#45;&gt;2781670912384</title>
<path fill="none" stroke="black" d="M135.74,-121.16C132.37,-129.57 128.34,-139.59 124.59,-148.91"/>
<polygon fill="black" stroke="black" points="121.43,-147.39 120.95,-157.97 127.93,-150 121.43,-147.39"/>
</g>
<!-- 2781441238384 -->
<g id="node4" class="node">
<title>2781441238384</title>
<ellipse fill="none" stroke="black" cx="21.57" cy="-21.57" rx="21.57" ry="21.57"/>
<text text-anchor="start" x="18.94" y="-23.32" font-family="Times New Roman,serif" font-size="10.00">4</text>
<text text-anchor="start" x="16.32" y="-12.07" font-family="Times New Roman,serif" font-size="10.00" fill="blue">00</text>
</g>
<!-- 2781441238384&#45;&gt;2781670648448 -->
<g id="edge3" class="edge">
<title>2781441238384&#45;&gt;2781670648448</title>
<path fill="none" stroke="black" d="M34.5,-38.92C42.62,-49.18 53.24,-62.62 62.44,-74.25"/>
<polygon fill="black" stroke="black" points="59.55,-76.24 68.5,-81.91 65.04,-71.9 59.55,-76.24"/>
</g>
<!-- 2781646927440 -->
<g id="node5" class="node">
<title>2781646927440</title>
<ellipse fill="none" stroke="black" cx="143.57" cy="-21.57" rx="21.57" ry="21.57"/>
<text text-anchor="start" x="140.94" y="-23.32" font-family="Times New Roman,serif" font-size="10.00">3</text>
<text text-anchor="start" x="138.32" y="-12.07" font-family="Times New Roman,serif" font-size="10.00" fill="blue">01</text>
</g>
<!-- 2781646927440&#45;&gt;2781670907648 -->
<g id="edge5" class="edge">
<title>2781646927440&#45;&gt;2781670907648</title>
<path fill="none" stroke="black" d="M143.57,-43.24C143.57,-50.61 143.57,-59.11 143.57,-67.24"/>
<polygon fill="black" stroke="black" points="140.07,-67.19 143.57,-77.19 147.07,-67.19 140.07,-67.19"/>
</g>
<!-- 2781653983984 -->
<g id="node6" class="node">
<title>2781653983984</title>
<ellipse fill="none" stroke="black" cx="82.57" cy="-21.57" rx="21.57" ry="21.57"/>
<text text-anchor="start" x="79.94" y="-23.32" font-family="Times New Roman,serif" font-size="10.00">5</text>
<text text-anchor="start" x="77.32" y="-12.07" font-family="Times New Roman,serif" font-size="10.00" fill="blue">10</text>
</g>
<!-- 2781653983984&#45;&gt;2781670648448 -->
<g id="edge2" class="edge">
<title>2781653983984&#45;&gt;2781670648448</title>
<path fill="none" stroke="black" d="M82.57,-43.24C82.57,-50.61 82.57,-59.11 82.57,-67.24"/>
<polygon fill="black" stroke="black" points="79.07,-67.19 82.57,-77.19 86.07,-67.19 79.07,-67.19"/>
</g>
<!-- 2781670892272 -->
<g id="node7" class="node">
<title>2781670892272</title>
<ellipse fill="none" stroke="black" cx="204.57" cy="-21.57" rx="21.57" ry="21.57"/>
<text text-anchor="start" x="201.94" y="-23.32" font-family="Times New Roman,serif" font-size="10.00">0</text>
<text text-anchor="start" x="199.69" y="-12.07" font-family="Times New Roman,serif" font-size="10.00" fill="blue">11</text>
</g>
<!-- 2781670892272&#45;&gt;2781670907648 -->
<g id="edge6" class="edge">
<title>2781670892272&#45;&gt;2781670907648</title>
<path fill="none" stroke="black" d="M191.63,-38.92C183.52,-49.18 172.89,-62.62 163.69,-74.25"/>
<polygon fill="black" stroke="black" points="161.09,-71.9 157.63,-81.91 166.58,-76.24 161.09,-71.9"/>
</g>
</g>
</svg>
