<?xml version="1.0" encoding="UTF-8" standalone="no"?>
<!DOCTYPE svg PUBLIC "-//W3C//DTD SVG 1.1//EN"
 "http://www.w3.org/Graphics/SVG/1.1/DTD/svg11.dtd">
<!-- Generated by graphviz version 12.2.0 (20241103.1931)
 -->
<!-- Pages: 1 -->
<svg width="234pt" height="209pt"
 viewBox="0.00 0.00 234.13 209.40" xmlns="http://www.w3.org/2000/svg" xmlns:xlink="http://www.w3.org/1999/xlink">
<g id="graph0" class="graph" transform="scale(1 1) rotate(0) translate(4 205.4)">
<polygon fill="white" stroke="none" points="-4,4 -4,-205.4 230.13,-205.4 230.13,4 -4,4"/>
<!-- 2781654191872 -->
<g id="node1" class="node">
<title>2781654191872</title>
<ellipse fill="none" stroke="black" cx="67.57" cy="-179.83" rx="21.57" ry="21.57"/>
<text text-anchor="start" x="64.57" y="-181.58" font-family="Times New Roman,serif" font-size="10.00">×</text>
<text text-anchor="start" x="64.94" y="-170.33" font-family="Times New Roman,serif" font-size="10.00" fill="blue">0</text>
</g>
<!-- 2781654193600 -->
<g id="node2" class="node">
<title>2781654193600</title>
<ellipse fill="none" stroke="black" cx="158.57" cy="-179.83" rx="21.57" ry="21.57"/>
<text text-anchor="start" x="155.57" y="-181.58" font-family="Times New Roman,serif" font-size="10.00">+</text>
<text text-anchor="start" x="155.94" y="-170.33" font-family="Times New Roman,serif" font-size="10.00" fill="blue">1</text>
</g>
<!-- 2781654191168 -->
<g id="node3" class="node">
<title>2781654191168</title>
<ellipse fill="none" stroke="black" cx="21.57" cy="-100.7" rx="21.57" ry="21.57"/>
<text text-anchor="start" x="18.57" y="-102.45" font-family="Times New Roman,serif" font-size="10.00">+</text>
<text text-anchor="start" x="16.32" y="-91.2" font-family="Times New Roman,serif" font-size="10.00" fill="blue">00</text>
</g>
<!-- 2781654191168&#45;&gt;2781654191872 -->
<g id="edge1" class="edge">
<title>2781654191168&#45;&gt;2781654191872</title>
<path fill="none" stroke="black" d="M32.24,-119.59C37.83,-128.97 44.8,-140.66 51.07,-151.17"/>
<polygon fill="black" stroke="black" points="47.89,-152.68 56.02,-159.47 53.91,-149.09 47.89,-152.68"/>
</g>
<!-- 2781654191744 -->
<g id="node4" class="node">
<title>2781654191744</title>
<ellipse fill="none" stroke="black" cx="82.57" cy="-100.7" rx="21.57" ry="21.57"/>
<text text-anchor="start" x="79.57" y="-102.45" font-family="Times New Roman,serif" font-size="10.00">×</text>
<text text-anchor="start" x="77.32" y="-91.2" font-family="Times New Roman,serif" font-size="10.00" fill="blue">01</text>
</g>
<!-- 2781654191744&#45;&gt;2781654191872 -->
<g id="edge4" class="edge">
<title>2781654191744&#45;&gt;2781654191872</title>
<path fill="none" stroke="black" d="M78.55,-122.37C77.06,-130.04 75.33,-138.92 73.69,-147.34"/>
<polygon fill="black" stroke="black" points="70.31,-146.4 71.83,-156.89 77.18,-147.74 70.31,-146.4"/>
</g>
<!-- 2781654192704 -->
<g id="node5" class="node">
<title>2781654192704</title>
<ellipse fill="none" stroke="black" cx="143.57" cy="-100.7" rx="21.57" ry="21.57"/>
<text text-anchor="start" x="140.57" y="-102.45" font-family="Times New Roman,serif" font-size="10.00">×</text>
<text text-anchor="start" x="138.32" y="-91.2" font-family="Times New Roman,serif" font-size="10.00" fill="blue">10</text>
</g>
<!-- 2781654192704&#45;&gt;2781654193600 -->
<g id="edge7" class="edge">
<title>2781654192704&#45;&gt;2781654193600</title>
<path fill="none" stroke="black" d="M147.59,-122.37C149.08,-130.04 150.81,-138.92 152.44,-147.34"/>
<polygon fill="black" stroke="black" points="148.95,-147.74 154.3,-156.89 155.83,-146.4 148.95,-147.74"/>
</g>
<!-- 2781654193408 -->
<g id="node6" class="node">
<title>2781654193408</title>
<ellipse fill="none" stroke="black" cx="204.57" cy="-100.7" rx="21.57" ry="21.57"/>
<text text-anchor="start" x="201.57" y="-102.45" font-family="Times New Roman,serif" font-size="10.00">+</text>
<text text-anchor="start" x="199.69" y="-91.2" font-family="Times New Roman,serif" font-size="10.00" fill="blue">11</text>
</g>
<!-- 2781654193408&#45;&gt;2781654193600 -->
<g id="edge10" class="edge">
<title>2781654193408&#45;&gt;2781654193600</title>
<path fill="none" stroke="black" d="M193.9,-119.59C188.31,-128.97 181.33,-140.66 175.07,-151.17"/>
<polygon fill="black" stroke="black" points="172.23,-149.09 170.11,-159.47 178.24,-152.68 172.23,-149.09"/>
</g>
<!-- 2781441238384 -->
<g id="node7" class="node">
<title>2781441238384</title>
<ellipse fill="none" stroke="black" cx="143.57" cy="-21.57" rx="21.57" ry="21.57"/>
<text text-anchor="start" x="140.94" y="-23.32" font-family="Times New Roman,serif" font-size="10.00">4</text>
<text text-anchor="start" x="138.32" y="-12.07" font-family="Times New Roman,serif" font-size="10.00" fill="blue">00</text>
</g>
<!-- 2781441238384&#45;&gt;2781654192704 -->
<g id="edge9" class="edge">
<title>2781441238384&#45;&gt;2781654192704</title>
<path fill="none" stroke="black" d="M143.57,-43.24C143.57,-50.61 143.57,-59.11 143.57,-67.24"/>
<polygon fill="black" stroke="black" points="140.07,-67.19 143.57,-77.19 147.07,-67.19 140.07,-67.19"/>
</g>
<!-- 2781616692320 -->
<g id="node8" class="node">
<title>2781616692320</title>
<ellipse fill="none" stroke="black" cx="21.57" cy="-21.57" rx="21.57" ry="21.57"/>
<text text-anchor="start" x="18.94" y="-23.32" font-family="Times New Roman,serif" font-size="10.00">2</text>
<text text-anchor="start" x="16.32" y="-12.07" font-family="Times New Roman,serif" font-size="10.00" fill="blue">01</text>
</g>
<!-- 2781616692320&#45;&gt;2781654191168 -->
<g id="edge2" class="edge">
<title>2781616692320&#45;&gt;2781654191168</title>
<path fill="none" stroke="black" d="M15.58,-42.43C14.88,-50.29 14.66,-59.51 14.92,-68.23"/>
<polygon fill="black" stroke="black" points="11.42,-68.34 15.48,-78.12 18.41,-67.94 11.42,-68.34"/>
</g>
<!-- 2781616692320&#45;&gt;2781654191168 -->
<g id="edge3" class="edge">
<title>2781616692320&#45;&gt;2781654191168</title>
<path fill="none" stroke="black" d="M27.55,-42.43C28.25,-50.29 28.47,-59.51 28.21,-68.23"/>
<polygon fill="black" stroke="black" points="24.72,-67.94 27.66,-78.12 31.71,-68.34 24.72,-67.94"/>
</g>
<!-- 2781646927440 -->
<g id="node9" class="node">
<title>2781646927440</title>
<ellipse fill="none" stroke="black" cx="82.57" cy="-21.57" rx="21.57" ry="21.57"/>
<text text-anchor="start" x="79.94" y="-23.32" font-family="Times New Roman,serif" font-size="10.00">3</text>
<text text-anchor="start" x="77.32" y="-12.07" font-family="Times New Roman,serif" font-size="10.00" fill="blue">10</text>
</g>
<!-- 2781646927440&#45;&gt;2781654191744 -->
<g id="edge5" class="edge">
<title>2781646927440&#45;&gt;2781654191744</title>
<path fill="none" stroke="black" d="M76.58,-42.43C75.88,-50.29 75.66,-59.51 75.92,-68.23"/>
<polygon fill="black" stroke="black" points="72.42,-68.34 76.48,-78.12 79.41,-67.94 72.42,-68.34"/>
</g>
<!-- 2781646927440&#45;&gt;2781654191744 -->
<g id="edge6" class="edge">
<title>2781646927440&#45;&gt;2781654191744</title>
<path fill="none" stroke="black" d="M88.55,-42.43C89.25,-50.29 89.47,-59.51 89.21,-68.23"/>
<polygon fill="black" stroke="black" points="85.72,-67.94 88.66,-78.12 92.71,-68.34 85.72,-67.94"/>
</g>
<!-- 2781646927440&#45;&gt;2781654192704 -->
<g id="edge8" class="edge">
<title>2781646927440&#45;&gt;2781654192704</title>
<path fill="none" stroke="black" d="M95.5,-38.92C103.62,-49.18 114.24,-62.62 123.44,-74.25"/>
<polygon fill="black" stroke="black" points="120.55,-76.24 129.5,-81.91 126.04,-71.9 120.55,-76.24"/>
</g>
<!-- 2781653983984 -->
<g id="node10" class="node">
<title>2781653983984</title>
<ellipse fill="none" stroke="black" cx="204.57" cy="-21.57" rx="21.57" ry="21.57"/>
<text text-anchor="start" x="201.94" y="-23.32" font-family="Times New Roman,serif" font-size="10.00">5</text>
<text text-anchor="start" x="199.69" y="-12.07" font-family="Times New Roman,serif" font-size="10.00" fill="blue">11</text>
</g>
<!-- 2781653983984&#45;&gt;2781654193408 -->
<g id="edge11" class="edge">
<title>2781653983984&#45;&gt;2781654193408</title>
<path fill="none" stroke="black" d="M198.58,-42.43C197.88,-50.29 197.66,-59.51 197.92,-68.23"/>
<polygon fill="black" stroke="black" points="194.42,-68.34 198.48,-78.12 201.41,-67.94 194.42,-68.34"/>
</g>
<!-- 2781653983984&#45;&gt;2781654193408 -->
<g id="edge12" class="edge">
<title>2781653983984&#45;&gt;2781654193408</title>
<path fill="none" stroke="black" d="M210.55,-42.43C211.25,-50.29 211.47,-59.51 211.21,-68.23"/>
<polygon fill="black" stroke="black" points="207.72,-67.94 210.66,-78.12 214.71,-68.34 207.72,-67.94"/>
</g>
</g>
</svg>
