<?xml version="1.0" encoding="UTF-8" standalone="no"?>
<!DOCTYPE svg PUBLIC "-//W3C//DTD SVG 1.1//EN"
 "http://www.w3.org/Graphics/SVG/1.1/DTD/svg11.dtd">
<!-- Generated by graphviz version 12.2.0 (20241103.1931)
 -->
<!-- Pages: 1 -->
<svg width="314pt" height="188pt"
 viewBox="0.00 0.00 314.00 188.00" xmlns="http://www.w3.org/2000/svg" xmlns:xlink="http://www.w3.org/1999/xlink">
<g id="graph0" class="graph" transform="scale(1 1) rotate(0) translate(4 184)">
<polygon fill="white" stroke="none" points="-4,4 -4,-184 310,-184 310,4 -4,4"/>
<!-- 2315426422528 -->
<g id="node1" class="node">
<title>2315426422528</title>
<ellipse fill="none" stroke="black" cx="112" cy="-162" rx="18" ry="18"/>
<text text-anchor="middle" x="112" y="-156.95" font-family="Times New Roman,serif" font-size="14.00">+</text>
</g>
<!-- 2315426425024 -->
<g id="node2" class="node">
<title>2315426425024</title>
<ellipse fill="none" stroke="black" cx="72" cy="-90" rx="18" ry="18"/>
<text text-anchor="middle" x="72" y="-84.95" font-family="Times New Roman,serif" font-size="14.00">×</text>
</g>
<!-- 2315426425024&#45;&gt;2315426422528 -->
<g id="edge1" class="edge">
<title>2315426425024&#45;&gt;2315426422528</title>
<path fill="none" stroke="black" d="M80.68,-106.19C85.66,-114.9 92.03,-126.06 97.73,-136.03"/>
<polygon fill="black" stroke="black" points="94.59,-137.58 102.59,-144.53 100.66,-134.11 94.59,-137.58"/>
</g>
<!-- 2315387109136 -->
<g id="node3" class="node">
<title>2315387109136</title>
<ellipse fill="none" stroke="black" cx="18" cy="-18" rx="18" ry="18"/>
<text text-anchor="middle" x="18" y="-12.95" font-family="Times New Roman,serif" font-size="14.00">1</text>
</g>
<!-- 2315387109136&#45;&gt;2315426425024 -->
<g id="edge2" class="edge">
<title>2315387109136&#45;&gt;2315426425024</title>
<path fill="none" stroke="black" d="M28.67,-32.83C35.99,-42.32 45.88,-55.14 54.36,-66.14"/>
<polygon fill="black" stroke="black" points="51.55,-68.22 60.43,-74 57.09,-63.94 51.55,-68.22"/>
</g>
<!-- 2315380453792 -->
<g id="node4" class="node">
<title>2315380453792</title>
<ellipse fill="none" stroke="black" cx="72" cy="-18" rx="18" ry="18"/>
<text text-anchor="middle" x="72" y="-12.95" font-family="Times New Roman,serif" font-size="14.00">5</text>
</g>
<!-- 2315380453792&#45;&gt;2315426425024 -->
<g id="edge3" class="edge">
<title>2315380453792&#45;&gt;2315426425024</title>
<path fill="none" stroke="black" d="M72,-36.3C72,-43.59 72,-52.27 72,-60.46"/>
<polygon fill="black" stroke="black" points="68.5,-60.38 72,-70.38 75.5,-60.38 68.5,-60.38"/>
</g>
<!-- 2315426418816 -->
<g id="node9" class="node">
<title>2315426418816</title>
<ellipse fill="none" stroke="black" cx="180" cy="-90" rx="18" ry="18"/>
<text text-anchor="middle" x="180" y="-84.95" font-family="Times New Roman,serif" font-size="14.00">×</text>
</g>
<!-- 2315380453792&#45;&gt;2315426418816 -->
<g id="edge9" class="edge">
<title>2315380453792&#45;&gt;2315426418816</title>
<path fill="none" stroke="black" d="M87.02,-28.73C104.75,-40.23 134.49,-59.5 155.56,-73.16"/>
<polygon fill="black" stroke="black" points="153.55,-76.02 163.84,-78.53 157.35,-70.15 153.55,-76.02"/>
</g>
<!-- 2315426424768 -->
<g id="node5" class="node">
<title>2315426424768</title>
<ellipse fill="none" stroke="black" cx="126" cy="-90" rx="18" ry="18"/>
<text text-anchor="middle" x="126" y="-84.95" font-family="Times New Roman,serif" font-size="14.00">×</text>
</g>
<!-- 2315426424768&#45;&gt;2315426422528 -->
<g id="edge4" class="edge">
<title>2315426424768&#45;&gt;2315426422528</title>
<path fill="none" stroke="black" d="M122.61,-107.95C121.1,-115.51 119.27,-124.63 117.57,-133.15"/>
<polygon fill="black" stroke="black" points="114.18,-132.23 115.65,-142.73 121.05,-133.61 114.18,-132.23"/>
</g>
<!-- 2315361287712 -->
<g id="node6" class="node">
<title>2315361287712</title>
<ellipse fill="none" stroke="black" cx="126" cy="-18" rx="18" ry="18"/>
<text text-anchor="middle" x="126" y="-12.95" font-family="Times New Roman,serif" font-size="14.00">2</text>
</g>
<!-- 2315361287712&#45;&gt;2315426424768 -->
<g id="edge5" class="edge">
<title>2315361287712&#45;&gt;2315426424768</title>
<path fill="none" stroke="black" d="M126,-36.3C126,-43.59 126,-52.27 126,-60.46"/>
<polygon fill="black" stroke="black" points="122.5,-60.38 126,-70.38 129.5,-60.38 122.5,-60.38"/>
</g>
<!-- 2315361910144 -->
<g id="node7" class="node">
<title>2315361910144</title>
<ellipse fill="none" stroke="black" cx="180" cy="-18" rx="18" ry="18"/>
<text text-anchor="middle" x="180" y="-12.95" font-family="Times New Roman,serif" font-size="14.00">6</text>
</g>
<!-- 2315361910144&#45;&gt;2315426424768 -->
<g id="edge6" class="edge">
<title>2315361910144&#45;&gt;2315426424768</title>
<path fill="none" stroke="black" d="M169.33,-32.83C162.01,-42.32 152.12,-55.14 143.64,-66.14"/>
<polygon fill="black" stroke="black" points="140.91,-63.94 137.57,-74 146.45,-68.22 140.91,-63.94"/>
</g>
<!-- 2315426415488 -->
<g id="node11" class="node">
<title>2315426415488</title>
<ellipse fill="none" stroke="black" cx="234" cy="-90" rx="18" ry="18"/>
<text text-anchor="middle" x="234" y="-84.95" font-family="Times New Roman,serif" font-size="14.00">×</text>
</g>
<!-- 2315361910144&#45;&gt;2315426415488 -->
<g id="edge12" class="edge">
<title>2315361910144&#45;&gt;2315426415488</title>
<path fill="none" stroke="black" d="M190.67,-32.83C197.99,-42.32 207.88,-55.14 216.36,-66.14"/>
<polygon fill="black" stroke="black" points="213.55,-68.22 222.43,-74 219.09,-63.94 213.55,-68.22"/>
</g>
<!-- 2315339873152 -->
<g id="node8" class="node">
<title>2315339873152</title>
<ellipse fill="none" stroke="black" cx="193" cy="-162" rx="18" ry="18"/>
<text text-anchor="middle" x="193" y="-156.95" font-family="Times New Roman,serif" font-size="14.00">+</text>
</g>
<!-- 2315426418816&#45;&gt;2315339873152 -->
<g id="edge7" class="edge">
<title>2315426418816&#45;&gt;2315339873152</title>
<path fill="none" stroke="black" d="M183.15,-107.95C184.55,-115.51 186.25,-124.63 187.83,-133.15"/>
<polygon fill="black" stroke="black" points="184.34,-133.53 189.61,-142.72 191.22,-132.25 184.34,-133.53"/>
</g>
<!-- 2315387566528 -->
<g id="node10" class="node">
<title>2315387566528</title>
<ellipse fill="none" stroke="black" cx="234" cy="-18" rx="18" ry="18"/>
<text text-anchor="middle" x="234" y="-12.95" font-family="Times New Roman,serif" font-size="14.00">3</text>
</g>
<!-- 2315387566528&#45;&gt;2315426418816 -->
<g id="edge8" class="edge">
<title>2315387566528&#45;&gt;2315426418816</title>
<path fill="none" stroke="black" d="M223.33,-32.83C216.01,-42.32 206.12,-55.14 197.64,-66.14"/>
<polygon fill="black" stroke="black" points="194.91,-63.94 191.57,-74 200.45,-68.22 194.91,-63.94"/>
</g>
<!-- 2315426415488&#45;&gt;2315339873152 -->
<g id="edge10" class="edge">
<title>2315426415488&#45;&gt;2315339873152</title>
<path fill="none" stroke="black" d="M225.1,-106.19C220,-114.9 213.46,-126.06 207.62,-136.03"/>
<polygon fill="black" stroke="black" points="204.68,-134.14 202.64,-144.53 210.72,-137.67 204.68,-134.14"/>
</g>
<!-- 2315387566688 -->
<g id="node12" class="node">
<title>2315387566688</title>
<ellipse fill="none" stroke="black" cx="288" cy="-18" rx="18" ry="18"/>
<text text-anchor="middle" x="288" y="-12.95" font-family="Times New Roman,serif" font-size="14.00">4</text>
</g>
<!-- 2315387566688&#45;&gt;2315426415488 -->
<g id="edge11" class="edge">
<title>2315387566688&#45;&gt;2315426415488</title>
<path fill="none" stroke="black" d="M277.33,-32.83C270.01,-42.32 260.12,-55.14 251.64,-66.14"/>
<polygon fill="black" stroke="black" points="248.91,-63.94 245.57,-74 254.45,-68.22 248.91,-63.94"/>
</g>
</g>
</svg>
