<?xml version="1.0" encoding="UTF-8" standalone="no"?>
<!DOCTYPE svg PUBLIC "-//W3C//DTD SVG 1.1//EN"
 "http://www.w3.org/Graphics/SVG/1.1/DTD/svg11.dtd">
<!-- Generated by graphviz version 12.2.0 (20241103.1931)
 -->
<!-- Pages: 1 -->
<svg width="206pt" height="188pt"
 viewBox="0.00 0.00 206.00 188.00" xmlns="http://www.w3.org/2000/svg" xmlns:xlink="http://www.w3.org/1999/xlink">
<g id="graph0" class="graph" transform="scale(1 1) rotate(0) translate(4 184)">
<polygon fill="white" stroke="none" points="-4,4 -4,-184 202,-184 202,4 -4,4"/>
<!-- 2781670912384 -->
<g id="node1" class="node">
<title>2781670912384</title>
<ellipse fill="none" stroke="black" cx="99" cy="-162" rx="18" ry="18"/>
<text text-anchor="middle" x="99" y="-156.95" font-family="Times New Roman,serif" font-size="14.00">+</text>
</g>
<!-- 2781670648448 -->
<g id="node2" class="node">
<title>2781670648448</title>
<ellipse fill="none" stroke="black" cx="72" cy="-90" rx="18" ry="18"/>
<text text-anchor="middle" x="72" y="-84.95" font-family="Times New Roman,serif" font-size="14.00">×</text>
</g>
<!-- 2781670648448&#45;&gt;2781670912384 -->
<g id="edge1" class="edge">
<title>2781670648448&#45;&gt;2781670912384</title>
<path fill="none" stroke="black" d="M78.26,-107.24C81.36,-115.28 85.19,-125.19 88.7,-134.31"/>
<polygon fill="black" stroke="black" points="85.36,-135.37 92.23,-143.44 91.89,-132.85 85.36,-135.37"/>
</g>
<!-- 2781653983984 -->
<g id="node3" class="node">
<title>2781653983984</title>
<ellipse fill="none" stroke="black" cx="18" cy="-18" rx="18" ry="18"/>
<text text-anchor="middle" x="18" y="-12.95" font-family="Times New Roman,serif" font-size="14.00">5</text>
</g>
<!-- 2781653983984&#45;&gt;2781670648448 -->
<g id="edge2" class="edge">
<title>2781653983984&#45;&gt;2781670648448</title>
<path fill="none" stroke="black" d="M28.67,-32.83C35.99,-42.32 45.88,-55.14 54.36,-66.14"/>
<polygon fill="black" stroke="black" points="51.55,-68.22 60.43,-74 57.09,-63.94 51.55,-68.22"/>
</g>
<!-- 2781441238384 -->
<g id="node4" class="node">
<title>2781441238384</title>
<ellipse fill="none" stroke="black" cx="72" cy="-18" rx="18" ry="18"/>
<text text-anchor="middle" x="72" y="-12.95" font-family="Times New Roman,serif" font-size="14.00">4</text>
</g>
<!-- 2781441238384&#45;&gt;2781670648448 -->
<g id="edge3" class="edge">
<title>2781441238384&#45;&gt;2781670648448</title>
<path fill="none" stroke="black" d="M72,-36.3C72,-43.59 72,-52.27 72,-60.46"/>
<polygon fill="black" stroke="black" points="68.5,-60.38 72,-70.38 75.5,-60.38 68.5,-60.38"/>
</g>
<!-- 2781670907648 -->
<g id="node5" class="node">
<title>2781670907648</title>
<ellipse fill="none" stroke="black" cx="126" cy="-90" rx="18" ry="18"/>
<text text-anchor="middle" x="126" y="-84.95" font-family="Times New Roman,serif" font-size="14.00">+</text>
</g>
<!-- 2781670907648&#45;&gt;2781670912384 -->
<g id="edge4" class="edge">
<title>2781670907648&#45;&gt;2781670912384</title>
<path fill="none" stroke="black" d="M119.74,-107.24C116.64,-115.28 112.81,-125.19 109.3,-134.31"/>
<polygon fill="black" stroke="black" points="106.11,-132.85 105.77,-143.44 112.64,-135.37 106.11,-132.85"/>
</g>
<!-- 2781646927440 -->
<g id="node6" class="node">
<title>2781646927440</title>
<ellipse fill="none" stroke="black" cx="126" cy="-18" rx="18" ry="18"/>
<text text-anchor="middle" x="126" y="-12.95" font-family="Times New Roman,serif" font-size="14.00">3</text>
</g>
<!-- 2781646927440&#45;&gt;2781670907648 -->
<g id="edge5" class="edge">
<title>2781646927440&#45;&gt;2781670907648</title>
<path fill="none" stroke="black" d="M126,-36.3C126,-43.59 126,-52.27 126,-60.46"/>
<polygon fill="black" stroke="black" points="122.5,-60.38 126,-70.38 129.5,-60.38 122.5,-60.38"/>
</g>
<!-- 2781670892272 -->
<g id="node7" class="node">
<title>2781670892272</title>
<ellipse fill="none" stroke="black" cx="180" cy="-18" rx="18" ry="18"/>
<text text-anchor="middle" x="180" y="-12.95" font-family="Times New Roman,serif" font-size="14.00">0</text>
</g>
<!-- 2781670892272&#45;&gt;2781670907648 -->
<g id="edge6" class="edge">
<title>2781670892272&#45;&gt;2781670907648</title>
<path fill="none" stroke="black" d="M169.33,-32.83C162.01,-42.32 152.12,-55.14 143.64,-66.14"/>
<polygon fill="black" stroke="black" points="140.91,-63.94 137.57,-74 146.45,-68.22 140.91,-63.94"/>
</g>
</g>
</svg>
